<svg width="32" height="32" viewBox="0 0 32 32" fill="none" xmlns="http://www.w3.org/2000/svg">
<g clip-path="url(#clip0_212_1475)">
<path d="M22.2281 21.1241H19V31.2088C26.1246 29.8118 31.5 23.5328 31.5 15.9991C31.5 7.43864 24.5604 0.49906 16 0.49906C7.43958 0.49906 0.5 7.43864 0.5 15.9991C0.5 23.5328 5.87542 29.8118 13 31.2088V21.1241H9.4375H8.9375V20.6241V15.9991V15.4991H9.4375H13V12.4741C13 10.3693 13.6289 8.67405 14.7975 7.50442C15.9655 6.3353 17.615 5.74906 19.5434 5.74906C20.4453 5.74906 21.3616 5.82935 22.048 5.90861C22.3923 5.94836 22.6811 5.98814 22.8844 6.01806C22.986 6.03303 23.0664 6.04555 23.1218 6.05439L23.1856 6.06475L23.2026 6.06758L23.2072 6.06836L23.2085 6.06858L23.2089 6.06865L23.209 6.06867L23.125 6.56156L23.2091 6.06869L23.625 6.13966V6.56156V10.4991V10.9991H23.125H21.1074C20.2222 10.9991 19.7234 11.2692 19.4366 11.6009C19.138 11.9462 19 12.4377 19 12.9977V15.4991H22.9375H23.52L23.4317 16.0749L22.7223 20.6999L22.6573 21.1241H22.2281Z" stroke="#F3F3F3"/>
<path d="M21.1074 10.25H22.875V6.77594C22.8447 6.77134 22.8113 6.76633 22.7751 6.76101C22.5783 6.73202 22.2973 6.69332 21.962 6.6546C21.2903 6.57704 20.4054 6.5 19.5434 6.5C17.7666 6.5 16.3251 7.0375 15.328 8.03544C14.3313 9.03313 13.75 10.5199 13.75 12.475V16V16.25H13.5H9.6875V20.375H13.5H13.75V20.625V31.5903C14.4848 31.6954 15.2359 31.75 16 31.75C16.7641 31.75 17.5152 31.6954 18.25 31.5903V20.625V20.375H18.5H22.0135L22.6462 16.25H18.5H18.25V16V12.9987C18.25 12.3297 18.4134 11.6384 18.8693 11.1113C19.331 10.5774 20.0593 10.25 21.1074 10.25Z" stroke="#F3F3F3" stroke-width="0.5"/>
</g>
<defs>
<clipPath id="clip0_212_1475">
<rect width="32" height="32" fill="white"/>
</clipPath>
</defs>
</svg>
