<svg width="150" height="25" viewBox="0 0 150 25" fill="none" xmlns="http://www.w3.org/2000/svg">
<g clip-path="url(#clip0_148_2235)">
<path d="M15.0029 10.9515L14.9419 11.1087C15.9574 11.555 18.237 13.3249 18.237 16.8901C18.237 20.2474 15.4039 23.63 10.9513 23.63C5.41207 23.63 3.50305 20.3945 3.50305 17.4226C3.50305 13.614 6.16857 11.0783 6.16857 7.60943C6.15405 6.38259 5.72333 5.19694 4.94682 4.24629C4.17031 3.29563 3.09392 2.63618 1.89359 2.37573L1.8022 2.53295C2.2375 2.95484 2.58289 3.46031 2.81759 4.01895C3.0523 4.5776 3.17148 5.17789 3.16796 5.78372C3.16796 9.5315 0.00488281 12.194 0.00488281 16.4945C0.00488281 20.4553 2.77702 24.4922 10.804 24.4922C17.9578 24.4922 21.7301 20.9929 21.7301 17.2705C21.725 14.0755 19.4352 11.3724 15.0029 10.9515Z" fill="url(#paint0_linear_148_2235)"/>
<path d="M46.431 23.8532L36.9215 11.6058V22.6462L38.8609 23.1077V23.6149H34.4387V23.1077L36.0228 22.6462V10.6168C35.6373 10.2579 35.173 9.99389 34.6672 9.84598C34.4743 9.80541 34.2153 9.75976 34.2153 9.75976V9.25262H37.9674L46.0908 19.8012V10.2314L44.1514 9.76484V9.25769H48.5736V9.76484L46.9895 10.2314V21.1806C46.9895 22.1949 47.0606 23.6707 47.0758 23.8583L46.431 23.8532ZM66.3132 16.0534C66.3132 21.1248 62.7592 24.0662 58.8752 24.0662C54.9911 24.0662 51.4219 21.0842 51.4219 16.449C51.4219 11.8137 54.9759 8.80127 58.8396 8.80127C59.8122 8.7692 60.7812 8.93343 61.6888 9.28414C62.5963 9.63484 63.4237 10.1648 64.1215 10.8423C64.8192 11.5199 65.3729 12.331 65.7495 13.2273C66.1261 14.1235 66.3179 15.0865 66.3132 16.0585V16.0534ZM63.8406 16.8141C63.8406 13.0866 61.6067 9.47069 58.5705 9.47069C55.3415 9.47069 53.8843 12.5896 53.8843 15.9266C53.8843 19.2636 55.7273 23.4019 59.195 23.4019C62.4546 23.4019 63.8406 20.1054 63.8406 16.8141ZM69.3849 10.2213L67.8618 9.75469V9.24755H73.6954V9.75469L71.8677 10.2213L75.8939 21.1857L79.9201 10.2213L78.0923 9.75469V9.24755H82.4079V9.75469L80.8847 10.2213L75.8431 23.8887H74.5535L69.3849 10.2213ZM103.859 16.2816H102.935V10.0032C105.981 10.0032 107.794 10.703 107.794 13.188C107.778 15.034 106.194 16.2816 103.859 16.2816ZM129.961 23.1077L131.992 22.6462V10.2263L129.961 9.75976V9.25262H136.292V9.75976L134.261 10.2263V22.6462L136.292 23.1077V23.6149H129.961V23.1077ZM140.171 19.6693H140.572L141.917 22.7629C142.717 23.1642 143.597 23.3825 144.492 23.4019C146.238 23.4019 147.832 22.3876 147.832 20.572C147.832 19.1926 146.939 18.371 145.492 17.6154L144.06 16.875C142.349 15.9875 140.638 14.7297 140.638 12.7063C140.638 10.5053 142.161 8.80634 145.421 8.80634C146.566 8.81795 147.703 9.00437 148.792 9.35912L149.132 12.686H148.701L147.457 10.0184C146.813 9.65917 146.087 9.47062 145.35 9.47069C143.699 9.47069 142.577 10.485 142.577 11.8898C142.577 13.1627 143.425 13.964 144.877 14.7145L146.573 15.597C148.888 16.7938 149.985 17.9045 149.985 19.9584C149.985 22.4941 147.604 24.0713 144.644 24.0713C143.25 24.0925 141.863 23.8852 140.536 23.4577L140.171 19.6693ZM81.4787 23.1077L83.1085 22.6462L88.14 9.24248L89.8205 8.81141L95.0145 22.6412L96.6443 23.1077V23.6149H90.4806V23.1077L92.5673 22.6412L91.0949 18.6652H85.5608L84.0986 22.6412L86.1853 23.1027V23.6098H81.4787V23.1077ZM85.9467 17.6052H90.7344L88.3583 11.195L85.9467 17.6052ZM106.763 16.591C107.271 16.4642 110.119 15.739 110.119 13.041C110.119 10.8755 108.459 9.19684 104.367 9.19684C101.828 9.19684 99.2895 9.25262 98.9696 9.26276V9.76991L100.64 10.2365V22.6412L98.9696 23.1077V23.6149H104.879V23.1077L102.94 22.6412V17.0322H104.61L108.88 23.625H112.663V23.1179L110.749 22.6107L106.763 16.591ZM119.243 9.99812V22.6462L117.212 23.1077V23.6149H123.543V23.1077L121.512 22.6462V10.0032H124.929L126.056 12.4273H126.493L126.168 9.26784H114.587L114.262 12.4273H114.699L115.816 10.0285L119.243 9.99812ZM10.901 19.1267L12.9318 -0.038208H8.71777L10.7486 19.1267H10.901Z" fill="#0460A9"/>
</g>
<defs>
<linearGradient id="paint0_linear_148_2235" x1="-0.00019436" y1="13.4314" x2="21.725" y2="13.4314" gradientUnits="userSpaceOnUse">
<stop offset="0.3" stop-color="#E74A21"/>
<stop offset="0.7" stop-color="#EC9A1E"/>
</linearGradient>
<clipPath id="clip0_148_2235">
<rect width="150" height="24.5" fill="white" transform="translate(0 -0.0078125)"/>
</clipPath>
</defs>
</svg>
