<svg width="150" height="24" viewBox="0 0 150 24" fill="none" xmlns="http://www.w3.org/2000/svg">
<g clip-path="url(#clip0_148_2242)">
<mask id="mask0_148_2242" style="mask-type:luminance" maskUnits="userSpaceOnUse" x="37" y="2" width="12" height="3">
<path d="M37.5 2.24589H48.2673V4.44592H37.5V2.24589Z" fill="white"/>
</mask>
<g mask="url(#mask0_148_2242)">
<path d="M33.8594 8.11072H51.9082V-1.41886H33.8594V8.11072Z" fill="#1263DF"/>
</g>
<mask id="mask1_148_2242" style="mask-type:luminance" maskUnits="userSpaceOnUse" x="0" y="1" width="28" height="23">
<path d="M14.3108 5.16004H6.43137V10.7024H14.3108C16.4648 10.7024 17.9578 10.4983 18.7946 10.1021C19.6312 9.70553 20.053 8.97368 20.053 7.88802C20.053 6.98011 19.8328 6.34941 19.3806 6.02559C18.5742 5.45322 16.875 5.16004 14.3134 5.16004H14.3108ZM6.41488 23.1335H0V1.2479H15.7922C19.4392 1.2479 22.1507 1.76155 23.9085 2.80286C25.6663 3.84446 26.5453 5.53084 26.5453 7.85966C26.5453 9.44299 26.046 10.7471 25.0523 11.7884C23.9836 12.9025 22.4297 13.6365 20.3929 13.9884L27.9376 23.1498H20.7587L13.9758 14.5888H6.43137L6.41715 23.1358L6.41488 23.1335Z" fill="white"/>
</mask>
<g mask="url(#mask1_148_2242)">
<mask id="mask2_148_2242" style="mask-type:luminance" maskUnits="userSpaceOnUse" x="0" y="0" width="150" height="24">
<path d="M0 23.9695H150V0.514938H0V23.9695Z" fill="white"/>
</mask>
<g mask="url(#mask2_148_2242)">
<path d="M0 23.9695H31.5783V-2.41688H0V23.9695Z" fill="#A2A2A2"/>
</g>
</g>
<mask id="mask3_148_2242" style="mask-type:luminance" maskUnits="userSpaceOnUse" x="27" y="0" width="32" height="24">
<path d="M34.4088 12.1835C34.4088 17.3153 37.1769 19.8952 42.7151 19.8952C48.2676 19.8952 51.0494 17.36 51.0494 12.2868C51.0494 7.18537 48.265 4.64979 42.7151 4.64979C39.9308 4.64979 37.8379 5.3255 36.4152 6.65771C35.0814 7.93349 34.4088 9.77929 34.4088 12.1835ZM42.6705 0.852715C47.3722 0.852715 50.9629 1.60084 53.4378 3.08082C56.5432 4.91262 58.0971 7.96186 58.0971 12.2422C58.0971 19.8345 52.9855 23.6316 42.7598 23.6316C37.5307 23.6316 33.6636 22.6793 31.1582 20.7891C28.6666 18.8986 27.4082 16.0255 27.4082 12.1835C27.4222 4.63344 32.4917 0.852715 42.673 0.852715H42.6705Z" fill="white"/>
</mask>
<g mask="url(#mask3_148_2242)">
<mask id="mask4_148_2242" style="mask-type:luminance" maskUnits="userSpaceOnUse" x="0" y="0" width="150" height="24">
<path d="M0 23.9695H150V0.514938H0V23.9695Z" fill="white"/>
</mask>
<g mask="url(#mask4_148_2242)">
<path d="M23.7676 23.9695H61.738V-2.81202H23.7676V23.9695Z" fill="#A2A2A2"/>
</g>
</g>
<mask id="mask5_148_2242" style="mask-type:luminance" maskUnits="userSpaceOnUse" x="59" y="1" width="29" height="23">
<path d="M81.0801 19.1895V14.074H72.5252V10.2039H87.6561V23.1766H73.8423C64.1884 23.1766 59.3555 19.6585 59.3555 12.6361C59.3555 8.57621 60.6446 5.62812 63.2227 3.78196C65.5804 2.11221 69.1102 1.28881 73.8423 1.28881H87.6561V5.10017H73.8423C71.5265 5.10017 69.7991 5.58341 68.6719 6.56608C67.2961 7.72474 66.6072 9.67396 66.6072 12.4156C66.6072 14.672 67.1203 16.3304 68.1306 17.4138C69.2743 18.6171 71.1775 19.2175 73.8583 19.2175H81.0801V19.1872V19.1895Z" fill="white"/>
</mask>
<g mask="url(#mask5_148_2242)">
<mask id="mask6_148_2242" style="mask-type:luminance" maskUnits="userSpaceOnUse" x="0" y="0" width="150" height="24">
<path d="M0 23.9695H150V0.514938H0V23.9695Z" fill="white"/>
</mask>
<g mask="url(#mask6_148_2242)">
<path d="M55.7148 23.9695H91.2972V-2.37591H55.7148V23.9695Z" fill="#A2A2A2"/>
</g>
</g>
<mask id="mask7_148_2242" style="mask-type:luminance" maskUnits="userSpaceOnUse" x="90" y="1" width="27" height="23">
<path d="M90.2932 14.5573V1.29141H96.7388V14.4399C96.7388 16.288 97.1044 17.5922 97.8383 18.3687C98.8483 19.3959 100.798 19.9236 103.653 19.9236C106.085 19.9236 107.799 19.5717 108.764 18.854C109.906 18.0471 110.464 16.5672 110.464 14.4422V1.29368H116.85V14.5596C116.85 17.6085 116.075 19.7475 114.507 21.0096C112.559 22.6066 108.941 23.4135 103.637 23.4135C98.4354 23.4135 94.8471 22.6513 92.8694 21.0986C91.1561 19.8085 90.291 17.6251 90.291 14.5596L90.2932 14.5573Z" fill="white"/>
</mask>
<g mask="url(#mask7_148_2242)">
<mask id="mask8_148_2242" style="mask-type:luminance" maskUnits="userSpaceOnUse" x="0" y="0" width="150" height="24">
<path d="M0 23.9695H150V0.514938H0V23.9695Z" fill="white"/>
</mask>
<g mask="url(#mask8_148_2242)">
<path d="M86.6494 23.9695H120.49V-2.37334H86.6494V23.9695Z" fill="#A2A2A2"/>
</g>
</g>
<mask id="mask9_148_2242" style="mask-type:luminance" maskUnits="userSpaceOnUse" x="118" y="1" width="26" height="23">
<path d="M143.351 1.29139V5.10275H132.79C128.264 5.10275 125.848 6.80313 125.539 10.218H143.351V14.0293H125.553C125.553 15.9505 126.125 17.327 127.28 18.1479C128.435 18.969 130.268 19.3793 132.788 19.3793H143.349V23.1907H132.509C122.972 23.1907 118.198 19.6725 118.198 12.6501C118.198 9.04296 119.208 6.30355 121.245 4.4554C123.603 2.34442 127.412 1.28882 132.685 1.28882H143.349L143.351 1.29139Z" fill="white"/>
</mask>
<g mask="url(#mask9_148_2242)">
<mask id="mask10_148_2242" style="mask-type:luminance" maskUnits="userSpaceOnUse" x="0" y="0" width="150" height="24">
<path d="M0 23.9695H150V0.514938H0V23.9695Z" fill="white"/>
</mask>
<g mask="url(#mask10_148_2242)">
<path d="M114.557 23.9695H146.991V-2.37591H114.557V23.9695Z" fill="#A2A2A2"/>
</g>
</g>
<mask id="mask11_148_2242" style="mask-type:luminance" maskUnits="userSpaceOnUse" x="145" y="1" width="5" height="5">
<path d="M147.729 3.05043C148.036 3.05043 148.388 3.06443 148.388 2.6539C148.388 2.31601 148.125 2.27167 147.874 2.27167H147.361V3.04787H147.727L147.729 3.05043ZM147.364 4.37085H147.04V2.0111H147.95C148.477 2.0111 148.711 2.24587 148.711 2.67018C148.711 3.09478 148.432 3.27091 148.17 3.32925L148.829 4.38492H148.463L147.819 3.32925H147.364V4.37085ZM149.445 3.18156C149.445 2.21296 148.727 1.45083 147.776 1.45083C146.825 1.45083 146.107 2.21296 146.107 3.18156C146.107 4.15045 146.825 4.89623 147.776 4.89623C148.727 4.89623 149.445 4.13381 149.445 3.18156ZM149.766 3.18156C149.766 4.28158 148.873 5.17542 147.773 5.17542C146.674 5.17542 145.781 4.28158 145.781 3.18156C145.781 2.08154 146.674 1.188 147.773 1.188C148.873 1.188 149.766 2.08154 149.766 3.18156Z" fill="white"/>
</mask>
<g mask="url(#mask11_148_2242)">
<mask id="mask12_148_2242" style="mask-type:luminance" maskUnits="userSpaceOnUse" x="0" y="0" width="150" height="24">
<path d="M0 23.9694H150V0.514816H0V23.9694Z" fill="white"/>
</mask>
<g mask="url(#mask12_148_2242)">
<path d="M142.141 8.84021H153.407V-2.47675H142.141V8.84021Z" fill="#A2A2A2"/>
</g>
</g>
</g>
<defs>
<clipPath id="clip0_148_2242">
<rect width="150" height="23.4545" fill="white" transform="translate(0 0.514893)"/>
</clipPath>
</defs>
</svg>
