<svg width="150" height="47" viewBox="0 0 150 47" fill="none" xmlns="http://www.w3.org/2000/svg">
<path d="M26.0205 0.242188C23.7246 0.242188 24.694 3.66663 24.8726 4.79108C24.8726 4.84219 25.0511 12.5344 25.1022 14.2977C25.4593 14.1955 25.7909 14.1189 26.1481 14.0422L26.8369 13.8633C26.8624 12.1511 27.0409 4.81663 27.0409 4.76552C27.194 3.58997 28.393 0.242188 26.0205 0.242188ZM25.3828 26.3089C25.6379 26.2322 25.893 26.13 26.1226 26.0789C26.3011 26.0277 26.4542 25.9766 26.6328 25.9255C26.6328 25.44 26.7858 18.5911 26.8114 17.3644C26.2756 17.4922 25.7399 17.6455 25.2297 17.8244C25.2552 18.7444 25.3828 25.5677 25.3828 26.3089ZM26.2756 28.8644C26.1991 28.89 25.9695 28.9922 25.8165 29.0433C25.6634 29.0944 25.4848 29.1711 25.4848 29.2222C25.4848 29.2222 25.6379 37.0933 25.6379 37.2466C25.6379 38.8566 26.4542 38.8822 26.4542 37.2466C26.4542 37.1444 26.6328 28.7366 26.6328 28.7366C26.6328 28.7366 26.4032 28.8133 26.2756 28.8644ZM24.3879 6.93774C23.7756 7.14219 23.1634 7.37219 22.5767 7.67885C21.9389 7.8833 21.0205 7.93441 20.0767 8.95663C19.7705 9.31441 19.4899 9.69774 19.2093 10.0811C18.9287 10.49 18.9032 11.1544 18.6991 11.4866C18.393 11.9977 18.4695 12.3044 18.4695 12.3044C18.4185 12.5344 18.2909 12.7644 18.1379 12.9433C17.8318 13.3011 17.3726 13.48 16.9134 13.4033C17.3471 13.6077 17.9338 13.3266 17.9338 13.3266C17.8318 13.6077 17.7552 13.8889 17.7042 14.17C18.1889 13.0711 18.6226 12.6877 18.7756 12.56C18.9797 12.6111 19.4134 12.5855 20.2042 12.1255C21.0971 11.6144 22.4491 10.7711 22.8318 10.2344C23.2399 9.69774 23.7756 9.2633 24.4134 9.0333C24.4134 8.26663 24.3879 7.55108 24.3879 6.93774ZM20.6124 10.3366L20.1532 10.4389L20.7144 9.51885L21.3522 9.54441L20.6124 10.3366ZM23.3675 29.12C23.3675 30.1422 24.1073 30.6789 24.8471 31.1133C24.8471 30.9344 24.8216 29.3755 24.8216 29.35C24.8471 29.0433 25.1277 28.8389 25.3828 28.7366C25.7654 28.5577 26.1736 28.4044 26.5818 28.2766C26.8114 28.2 26.9899 28.1233 27.194 28.0722C28.6991 27.6122 30.4338 27.05 30.4338 25.21C30.4338 23.37 28.9542 22.6289 27.3216 22.0666C27.296 22.6544 27.296 23.4977 27.2705 24.0855C27.9593 24.3411 28.4185 24.6733 28.4185 25.21C28.4185 25.8744 27.7297 26.2322 27.2195 26.4366C27.0154 26.5133 26.7093 26.6155 26.6073 26.6411C26.1991 26.7689 25.7909 26.8966 25.3828 27.05C25.1787 27.1266 24.9746 27.2033 24.7705 27.3055C24.1073 27.6633 23.3675 28.2 23.3675 29.12ZM33.1634 11.41C33.1634 9.54441 31.8114 7.49997 28.5205 6.78441C28.1889 6.7333 27.8573 6.68219 27.5256 6.65663C27.5256 6.93774 27.5001 7.57663 27.5001 7.57663C27.5001 7.78108 27.4746 8.52219 27.4746 8.67552C27.6787 8.70108 27.9083 8.72663 28.1124 8.75219C30.0256 9.21219 30.7144 10.3111 30.7144 11.3844C30.7144 13.1477 29.2093 13.8122 27.3726 14.3233L26.7603 14.4766C26.1991 14.6044 25.6124 14.7577 25.0511 14.9111C24.8471 14.9622 24.643 15.0133 24.4389 15.09C22.3981 15.7033 20.6379 16.7 20.6379 19.23C20.6379 21.76 22.6532 22.68 24.6175 23.2933C24.6175 22.5777 24.592 21.8366 24.5665 21.1211C23.6736 20.7122 23.0869 20.1755 23.0869 19.2811C23.0869 18.3866 23.6481 17.8755 24.4899 17.4922C24.6685 17.4155 24.8726 17.3389 25.1022 17.2622C25.5869 17.0833 26.1481 16.9555 26.7093 16.8022L27.3216 16.6489C30.0767 15.9844 33.1889 15.1155 33.1634 11.41ZM27.0409 32.1866C27.9593 32.6466 28.8267 33.3111 29.1838 34.5377C29.3369 32.4933 28.1889 31.6244 27.0665 31.0111L27.0409 32.1866ZM42.3471 8.67552C43.342 9.87663 45.0767 10.5666 46.0971 11.7677C45.3573 8.24108 42.6532 5.3533 39.4389 4.6633C41.0205 5.83885 41.3522 7.47441 42.3471 8.67552ZM3.82666 17.62C6.04605 12.79 9.33686 13.8122 10.7399 9.23774C9.9236 10.6177 6.32666 11.2055 4.6685 14.8089C5.53584 12.6622 5.10217 9.39108 6.53074 7.60219C2.21952 10.8222 4.05625 15.9844 3.82666 17.62ZM7.80625 29.1711C8.21442 31.0366 7.04095 33.7711 8.90319 36.3522C6.98993 34.2055 2.90829 33.6433 1.25013 30.3722C3.31646 38.3711 8.72462 36.7355 11.1481 38.4733C9.15829 35.5855 10.7909 33.6689 7.80625 29.1711ZM7.19401 34.2055C5.99503 29.7333 8.11237 28.1744 6.50523 23.8811C6.35217 26.3089 4.71952 27.4844 5.81646 31.9055C3.90319 28.1489 0.944007 26.7433 0.0766602 24.1877C0.127681 31.2155 5.76544 32.2633 7.19401 34.2055ZM15.842 41.6933C14.1838 39.3933 15.3063 38.09 10.6634 33.9244C11.6583 35.4577 10.6379 37.3744 13.7756 40.3389C10.7144 38.5244 6.45421 39.2911 4.41339 36.8633C7.9338 43.61 14.1073 40.85 15.842 41.6933ZM38.4185 40.3389C41.5563 37.3489 40.5358 35.4322 41.5307 33.9244C36.8624 38.09 38.0103 39.3933 36.3267 41.6933C38.0869 40.85 44.2603 43.61 47.7552 36.8633C45.7399 39.3166 41.4797 38.5244 38.4185 40.3389ZM43.2909 36.3522C45.1532 33.7711 43.9797 31.0622 44.3624 29.1711C41.3777 33.6689 43.0103 35.5855 41.0205 38.4733C43.4695 36.7355 48.8522 38.3711 50.9185 30.3722C49.2603 33.6433 45.2042 34.2055 43.2909 36.3522ZM35.842 42.0255C34.1838 41.5911 32.4746 41.31 30.7399 41.2589C29.1583 41.2333 27.5767 41.4889 26.0971 42.0511C24.6175 41.4889 23.0358 41.2333 21.4542 41.2589C19.7195 41.31 18.0103 41.5911 16.3522 42.0255C13.546 42.7666 11.1226 43.3544 9.00523 42.2811C11.0205 44.07 13.393 44.7344 16.8114 44.3511C19.643 44.0444 21.9389 42.6133 24.6175 42.6389H24.7195C23.0358 43.4822 21.5307 44.6577 20.3063 46.0889L21.6073 46.2677C21.6073 46.2677 22.9593 43.5333 26.0971 42.8177C29.2348 43.5333 30.5869 46.2677 30.5869 46.2677L31.8879 46.0889C30.6634 44.6577 29.1583 43.4822 27.4746 42.6389H27.5767C30.2552 42.6133 32.5511 44.0444 35.3828 44.3511C38.8011 44.7089 41.1481 44.07 43.1889 42.2811C41.0716 43.3544 38.6481 42.7666 35.842 42.0255ZM6.76033 19.0255C5.61237 21.2489 3.80115 21.76 4.00523 26.3344C3.03584 22.2711 0.714415 20.7377 0.739926 18.1566C-0.867217 24.9544 3.4185 25.7466 4.54095 28.6089C4.36237 24.52 6.96442 23.7022 6.76033 19.0255ZM8.36748 13.7866C7.95931 14.3489 7.6787 14.6044 6.60727 15.4733C5.00013 16.7511 3.87768 18.5655 3.49503 20.5844C3.59707 18.08 2.06646 14.5022 3.08686 11.8955C-0.867217 17.4922 3.31646 20.84 3.46952 22.8844C4.46442 18.9744 6.83686 18.9489 8.36748 13.7866ZM48.6736 20.5844C48.2654 18.5655 47.1685 16.7511 45.5614 15.4733C44.4899 14.5789 44.2093 14.3489 43.8011 13.7866C45.3318 18.9489 47.7042 18.9744 48.7246 22.8844C48.8777 20.8655 53.0614 17.5177 49.1073 11.8955C50.1277 14.5022 48.5971 18.08 48.6736 20.5844ZM52.0409 24.1877C51.1736 26.7689 48.2144 28.1489 46.3011 31.9055C47.3981 27.4844 45.7654 26.3089 45.6124 23.8811C44.0052 28.1744 46.1226 29.7333 44.9236 34.2055C46.3522 32.2633 51.9899 31.2155 52.0409 24.1877ZM45.4083 19.0255C45.1787 23.7022 47.8063 24.52 47.6277 28.6089C48.7246 25.7722 53.0358 24.9544 51.4287 18.1566C51.4542 20.7633 49.1328 22.2711 48.1634 26.36C48.3675 21.7344 46.5818 21.2489 45.4083 19.0255ZM9.69401 8.67552C10.6889 7.47441 11.0205 5.83885 12.6022 4.6633C9.36238 5.3533 6.65829 8.21552 5.9185 11.7422C6.93891 10.5411 8.69911 9.85108 9.69401 8.67552ZM41.3267 9.18663C42.7297 13.7866 46.0205 12.7644 48.2399 17.5689C48.0103 15.9589 49.8471 10.7711 45.5358 7.60219C46.9899 9.36552 46.5563 12.6622 47.3981 14.8089C45.7144 11.2055 42.1175 10.6177 41.3267 9.18663ZM30.1022 11.8189C29.2603 11.4611 28.3675 11.2311 27.4746 11.1033V11.6911C28.3165 11.8189 29.1328 12.0489 29.8981 12.3555C30.0001 12.1766 30.0767 11.9977 30.1022 11.8189ZM29.4389 6.11997L29.6175 5.96663L29.2858 5.8133L28.393 5.78774L28.1634 5.94108L27.6532 5.88997V6.01774C27.9848 6.0433 28.3165 6.06885 28.5716 6.11997L29.0052 6.09441L29.4389 6.11997ZM27.7552 25.1844C27.7552 25.0311 27.5511 24.8777 27.2705 24.75H27.2195C27.2195 24.8777 27.194 25.4655 27.194 25.7722C27.5256 25.5933 27.7552 25.44 27.7552 25.1844ZM17.5256 13.9655C17.5511 13.8633 17.5767 13.7355 17.6022 13.6333C17.4746 13.6589 17.3726 13.6844 17.245 13.6589L17.5256 13.9655ZM13.4185 9.85108L15.5103 11.9466C12.9848 14.5789 11.5563 18.1055 11.5052 21.76H8.54605C8.59707 17.2877 10.3318 13.0455 13.4185 9.85108ZM12.143 26.1555L11.9644 26.13L11.7858 25.9511L10.944 25.8744L11.1991 26.2322L10.4338 26.0789L10.6379 25.9L10.4593 25.7211L9.89809 25.9511L9.69401 26.3089L9.77054 27.1522L10.4083 28.6855L10.7144 29.1711L10.893 29.2222L10.4083 28.3022L10.3063 27.8422L10.4083 27.74L10.3318 27.4844L10.6124 27.5355L11.0716 28.2L11.1736 28.2511V27.7655L11.3522 27.8677L11.4032 28.1233L11.8624 28.2511L12.0665 28.0977L12.143 28.1489V28.5066L12.3471 28.7622L12.6022 28.8133L13.1634 29.7333L13.495 29.8355L13.5971 29.4011C14.1838 30.3466 14.8471 31.2411 15.6379 32.0333L13.546 34.1289C10.4338 30.9855 8.64809 26.7689 8.54605 22.3477H11.5052C11.5307 23.6255 11.7603 24.9289 12.143 26.1555ZM15.0512 22.3222C15.0512 22.6033 15.0767 22.8844 15.1277 23.1911L14.7705 23.2677L14.694 23.6255L13.9287 24.5966L13.9542 25.9255L13.1889 26.1811H12.7552C12.3471 24.9289 12.143 23.6511 12.092 22.3222H15.0512ZM15.7144 30.6789L16.3777 31.0622L16.5052 31.1644L16.0205 31.65C15.7909 31.42 15.5869 31.19 15.3828 30.9344L15.7144 30.6789ZM18.4185 14.86L20.5103 16.9555C20.0767 17.4411 19.694 17.9777 19.4134 18.5655H19.2603L18.9542 18.6422H18.8522L18.546 18.9233L18.9542 18.8722L19.3114 18.7955L19.2348 18.8977L18.9287 19.1022H18.7756L18.3165 19.46L17.8828 19.4089L17.245 20.61L17.3726 20.84L17.0154 21.2489L16.9644 21.76H15.6379C15.6634 19.1789 16.6583 16.7255 18.4185 14.86ZM20.5614 23.5233L20.7144 23.4466L21.0971 23.7277L20.9185 23.8555L21.3522 24.1366L21.3267 23.83L21.5563 23.4466L21.8114 23.7022L22.0665 24.06L21.6073 24.1877L21.8114 24.5966L22.1175 24.4177L22.0665 24.29L22.296 24.1366L22.4236 23.4977C22.6022 23.8811 22.8318 24.2389 23.1124 24.5455L21.0205 26.6411C20.0001 25.5677 19.3624 24.1877 19.1838 22.7055L19.6175 23.1655H20.0256L20.5614 23.5233ZM17.5511 21.3L17.6022 20.7122L17.9593 20.5077L18.5971 20.61L18.6991 20.7122C18.6481 21.0444 18.6226 21.4022 18.5971 21.7344H17.8828L17.5511 21.3ZM16.5818 23.3444L16.3012 23.7789H15.8165L15.7909 23.7533C15.7144 23.2933 15.6634 22.8077 15.6379 22.3477H16.5307L16.3267 23.0633L16.5818 23.3444ZM18.546 29.12C18.342 28.89 18.1124 28.66 17.9338 28.43L18.0358 27.6889L17.7297 26.9733L17.6532 25.8489L17.296 25.1589L17.3726 24.7244L16.9389 23.9066L16.5818 23.7277L16.7348 23.2933L16.5818 22.9611L16.7348 22.5777H17.143L17.296 22.3477H17.9848L18.0869 22.5522L17.9338 23.2422L17.8573 23.37L18.1124 23.9322L17.9338 24.0344L17.8063 23.8811L17.7552 23.9322L17.8828 24.2644L18.0869 24.6477H18.1889L18.2399 24.29L18.1379 24.1622V23.9322L18.1124 23.4466L18.2654 22.5777L18.1124 22.3477H18.5971C18.6991 24.1111 19.4134 25.7722 20.6379 27.05L18.546 29.12ZM36.3522 31.9822C38.8777 29.3755 40.3318 25.9255 40.4083 22.3222H43.3675C43.2654 26.7177 41.5052 30.9344 38.4185 34.0777L36.3522 31.9822ZM35.5358 31.1644L35.7654 30.9089L35.5358 29.7589L35.3828 29.7077L35.4848 29.5033L35.0001 29.35L34.8981 29.7589L34.8471 30.27L34.745 30.3722L33.8522 29.4777C35.7144 27.5355 36.7858 25.0055 36.8879 22.3222H39.8471C39.745 25.7977 38.3675 29.0944 35.944 31.5733L35.5358 31.1644ZM32.9338 33.95L33.2144 33.3622L33.1124 33.1066L33.5205 32.7489V32.5444L33.1634 32.3144L33.444 31.7266L33.8777 31.1644L33.444 30.7044H33.1124L32.9083 30.3722C33.0869 30.2189 33.2654 30.0655 33.4185 29.9122L35.5103 32.0077C34.745 32.7489 33.8777 33.4133 32.9338 33.95ZM32.5256 28.1744L32.245 27.8933L32.4491 27.6122L32.7297 27.05L32.6277 26.8966L32.8063 26.4877L32.7807 26.1044L32.6787 25.7211L32.4236 25.6444L32.3216 25.8489L32.1685 25.7977C32.3981 25.4655 32.6022 25.0822 32.7807 24.7244L33.0358 24.6222L33.1889 24.4177L33.2654 24.4944L33.444 24.29L33.2909 24.1111L33.4185 24.0855L33.6481 24.1877H34.1073L34.3879 24.0344L35.1022 23.83L34.9746 23.6L34.9236 23.3189L35.3062 23.4977L35.4593 23.4211L35.3828 23.1144L34.8981 23.2933L34.3879 23.1911L33.9797 22.3733H36.2501C36.1481 24.9033 35.1277 27.3055 33.393 29.12L33.0869 28.8133L33.2144 28.4044L32.9848 27.4844L32.5256 28.1744ZM31.4542 17.0322L33.546 14.9366C34.0307 15.4733 34.4644 16.0611 34.8471 16.6744L34.592 16.7511L34.6175 17.2111L35.3828 17.6966C35.5869 18.1311 35.7399 18.5655 35.8675 19.0255L35.7399 19.23L35.4593 19.4344L35.3828 19.8689L35.1787 19.9711L35.0256 20.1755L34.8726 20.0989H34.592L34.745 19.8689L34.8726 19.2811L35.0767 19.1533L34.5154 18.6166L34.1073 18.77L34.0052 19.1789L33.7501 19.46L33.4695 19.23L33.3675 18.9744L33.5205 18.8722L33.5971 19.0255L33.7246 18.9744L33.6736 18.7189H33.495V18.8211L33.3675 18.8466L32.7297 18.08L32.5001 17.9011L32.5767 17.8244L32.7807 17.7477L32.5767 17.6711C32.5767 17.6711 32.3471 17.7222 32.3216 17.7222L32.4491 17.9011H32.1175C31.9134 17.5689 31.7093 17.2877 31.4542 17.0322ZM31.7858 28.4555L31.1481 28.2766L30.944 28.3533L30.5869 28.0722L30.2552 27.9444C30.4338 27.8166 30.5869 27.6889 30.7399 27.5611L31.2756 27.9444L31.6838 28.1489L31.8879 28.3533L31.7858 28.4555ZM30.6634 18.6166L30.9185 18.5655V18.5144L30.6634 18.3355L30.7399 17.7733L31.046 17.4411C31.2501 17.6711 31.4287 17.9011 31.6073 18.1566L31.5052 18.4889L31.2246 18.2844L30.995 18.3355L31.0971 18.54H31.1991L31.0716 18.8466L30.995 18.7189L30.6634 18.6166ZM34.2093 20.6611L34.745 20.38L35.2807 20.3033L35.4083 20.0477L35.7144 19.8689L35.842 19.6133L35.944 19.1789C35.995 19.3322 36.0205 19.4855 36.0716 19.6389L35.7909 20.4822V20.7633L36.1481 20.1755C36.2246 20.6866 36.2756 21.2233 36.3012 21.7344H33.6991L33.6481 21.5044L33.9542 21.2744L34.0052 21.1211L34.1328 21.0189L34.4899 20.9677L34.5154 20.8144L34.2093 20.6611ZM34.796 13.71L35.5103 13.7355L35.6889 13.94L35.6124 14.2466L36.6073 14.86L36.8114 14.8344L38.0614 16.2911L38.5716 16.1122C39.3879 17.8755 39.8216 19.8177 39.8471 21.76H36.8879C36.8879 20.9933 36.7858 20.2522 36.6073 19.5111L36.7348 19.3322L36.9134 18.3866L36.7858 17.39L36.4287 16.24L35.6124 15.0389L35.8165 15.1411L35.9185 15.0389L35.2552 14.5789L35.2042 14.7322L35.8675 15.6777L36.2501 16.4444L36.5052 17.2111L36.5818 17.7222L36.7093 18.5911L36.4542 18.6166C36.4542 18.6166 36.1736 18.08 36.0716 17.85L36.1991 17.6455L35.944 17.2877V16.9555L35.7654 16.7255L35.5358 16.7511C35.4593 16.5977 35.3828 16.4444 35.2807 16.3166L35.4338 16.3933L35.4848 16.3422L35.4083 16.1633L35.6124 16.0611L35.5358 15.9589L35.2552 16.0611L35.3573 15.6011L35.1787 15.4989L35.0256 15.8566C34.694 15.3711 34.3369 14.9111 33.9542 14.4766L34.796 13.71ZM38.5716 9.90219C41.6328 13.0966 43.342 17.3389 43.393 21.76H40.4338C40.4083 19.5622 39.8981 17.39 38.9032 15.4222L38.9287 15.3711L39.1328 15.4733L39.1838 15.32L38.6481 14.4L38.0103 13.5311L37.2705 12.9177C37.0154 12.6111 36.7603 12.3044 36.4797 11.9977L38.5716 9.90219ZM25.9695 39.9555C35.9185 39.9555 43.9797 31.8544 43.9542 21.8877C43.9542 12.6366 36.9644 4.8933 27.7807 3.94774L27.7552 4.04997C27.7297 4.22885 27.6787 4.38219 27.6532 4.53552C31.6073 4.91885 35.3063 6.65663 38.1379 9.44219L36.1481 11.4355L36.2246 11.0777L35.9695 10.95L35.6379 10.9755L35.7144 10.7455L35.4848 9.92774L35.0001 9.39108L33.444 8.5733L33.3165 8.72663L33.0358 8.8033C33.5716 9.56997 33.8522 10.49 33.8522 11.41V11.7677L34.6175 12.7389L34.2603 12.8155L34.4899 13.1733L33.8011 13.8633L33.5205 13.3522C33.393 13.71 33.2144 14.0677 33.0103 14.3744L33.1634 14.5022L31.046 16.5977C30.9185 16.47 30.7909 16.3677 30.6634 16.24C30.4593 16.3422 30.2552 16.4189 30.0511 16.4955L30.2297 16.6233L30.1277 16.7255L29.8726 16.8533L29.7705 17.1089L29.6175 16.9555L29.1838 17.1089L29.3114 17.3133L29.6175 17.2366L29.8216 17.2622L29.8471 17.16L30.0001 17.0833L30.0511 17.0066L30.3318 16.93H30.5358L30.6634 17.0322L29.8471 17.8755L29.796 17.7989L28.9287 17.9522L28.7246 18.1566L28.546 18.1822L29.0818 17.6711L28.8777 17.5689L28.3675 18.2333L28.5205 18.2077V18.4633L28.6991 18.54L28.7246 18.7955L28.4185 18.7444L28.1124 18.7955L27.3471 18.4122C27.3471 18.4122 27.296 20.4566 27.296 21.4789C29.0818 22.0922 30.995 22.9611 30.995 25.2611C31.0205 26.2322 30.5103 27.1522 29.694 27.6889L29.643 27.7144L29.592 27.7655C28.8777 28.2511 27.9338 28.5066 27.1175 28.7622L27.092 30.3722C28.393 31.0111 29.9491 31.9566 29.796 34.6144C29.7705 35.2789 29.5154 35.4577 29.3114 35.5089C28.546 35.6877 27.7552 35.8155 26.9899 35.8666V36.4544C30.3573 36.2244 33.5205 34.8189 35.9695 32.4933L38.0614 34.5889C31.3522 41.08 20.7144 41.08 13.9797 34.64L16.0716 32.5444C18.495 34.8189 21.6328 36.1989 24.9491 36.4544V35.8666C21.7858 35.6111 18.8267 34.3077 16.5307 32.11L17.0665 31.5477L17.8318 31.6244L18.2399 31.19L19.3114 31.2411L19.4644 30.8577L19.4134 30.7044C20.995 31.9055 22.8828 32.6722 24.8726 32.8766V32.2889C22.6787 32.0333 20.6379 31.1133 19.0052 29.6055L21.0971 27.51C21.6073 27.97 22.1685 28.3533 22.8063 28.66C22.8573 28.4555 22.9083 28.2766 23.0103 28.0977C22.4746 27.8166 21.9644 27.4844 21.5307 27.1011L23.6226 25.0055C23.9542 25.2611 24.3369 25.4911 24.7195 25.6189V24.98C24.4644 24.8777 24.2348 24.7244 24.0307 24.5711L24.6175 23.9833C24.4134 23.9322 24.2093 23.8555 24.0052 23.7789L23.5971 24.1877C23.393 23.9577 23.2144 23.7022 23.0869 23.4466C22.7297 23.2933 22.3726 23.1144 22.0409 22.8844C20.8165 22.1433 20.0767 20.7889 20.1022 19.3322C20.0767 18.3611 20.3573 17.39 20.944 16.6233L18.8522 14.5277C20.3828 13.0455 22.3471 12.1 24.4389 11.7677V11.18C22.194 11.5122 20.0767 12.5344 18.444 14.1189L18.0869 13.7611C18.0103 13.8889 17.9083 14.0677 17.8063 14.2977L18.0358 14.5277C16.1736 16.4955 15.1277 19.1022 15.0767 21.8111H12.092C12.143 18.31 13.495 14.9622 15.9185 12.4066L16.8624 13.3522H16.9899C17.1685 13.3266 17.3726 13.2755 17.5256 13.1989L16.3267 11.9977C16.9644 11.3844 17.6532 10.8222 18.393 10.3366C18.444 10.1833 18.4695 10.03 18.546 9.90219C18.6736 9.69774 18.8267 9.4933 19.0052 9.28885C17.8828 9.90219 16.8624 10.6689 15.944 11.5633L13.8522 9.46774C16.6583 6.7333 20.3063 5.02108 24.2348 4.61219C24.2348 4.53552 24.2093 4.48441 24.2093 4.48441C24.1838 4.33108 24.1583 4.2033 24.1328 4.02441C14.2093 5.04663 7.04095 13.9144 8.08686 23.83C9.05625 33.0044 16.7603 39.9811 25.9695 39.9555ZM34.8216 8.77774L34.643 8.49663L34.2603 8.29219L33.9542 8.52219L34.3369 8.72663L34.7705 9.0333L34.8216 8.77774ZM33.0358 17.16L33.0614 17.39L33.5716 17.2366L33.7246 16.93L33.3675 16.47L33.546 16.1889L34.0307 16.5211L34.1073 16.4444L34.0052 16.3677L33.9032 16.1633L34.1073 16.0611L33.9032 15.8055L33.444 16.0355L33.2909 16.3166L33.1889 16.5722L33.393 16.9044L33.3165 17.0577L33.0358 17.16ZM11.6583 30.4489L11.6838 30.3211L11.4287 29.7333L11.1226 29.6055L11.6583 30.4489ZM23.7246 19.3066C23.7246 19.8177 24.0307 20.15 24.5665 20.4566V20.2266L24.2348 19.8689L24.4134 19.5366L24.5665 19.4855C24.5409 18.8977 24.5409 18.2589 24.5409 18.1566H24.5154C24.0052 18.4633 23.7501 18.8211 23.7246 19.3066Z" fill="#009EDB"/>
<path d="M63.7755 11.1543H63.75L61.7092 21.8366H58.9031L56.25 8.80322H58.4949L60.3316 18.8466H60.3571L62.3214 8.80322H65.2296L67.1684 18.8466H67.1939L69.1071 8.80322H71.2755L68.5969 21.8366H65.7398L63.7755 11.1543Z" fill="#009EDB"/>
<path d="M74.7449 12.0488C76.7092 12.0488 78.9541 13.0711 78.9541 16.9811C78.9541 21.0188 76.7092 21.9388 74.7449 21.9388C72.7807 21.9388 70.5103 20.9933 70.5103 16.9811C70.5358 13.0711 72.8062 12.0488 74.7449 12.0488ZM74.7449 20.3288C76.2245 20.3288 76.5817 18.6166 76.5817 17.0066C76.5817 15.3966 76.2501 13.7099 74.7449 13.7099C73.2398 13.7099 72.9082 15.3966 72.9082 17.0066C72.9082 18.6166 73.2654 20.3288 74.7449 20.3288Z" fill="#009EDB"/>
<path d="M80.1019 13.7866C80.1019 13.2499 80.0764 12.7388 80.0254 12.2021H82.1172C82.1427 12.7899 82.1938 13.3777 82.1938 13.9655H82.2193C82.4999 13.2243 83.2142 12.0743 84.6682 12.0743C84.7958 12.0743 84.9233 12.0999 85.0509 12.1255V14.2977C84.8468 14.2466 84.6172 14.1955 84.4131 14.1955C83.4693 14.1955 82.4233 14.7832 82.4233 16.5721V21.8366H80.1274L80.1019 13.7866Z" fill="#009EDB"/>
<path d="M85.9692 7.83215H88.2907V21.811H85.9692V7.83215Z" fill="#009EDB"/>
<path d="M97.7042 7.83215V20.1755C97.7042 20.7122 97.7297 21.2744 97.7807 21.811H95.6123C95.5613 21.3255 95.5358 20.8144 95.5358 20.3288H95.4848C95.1021 21.1466 94.4133 21.9644 92.9337 21.9644C90.5613 21.9644 89.5664 19.6899 89.5664 17.0322C89.5664 13.8888 90.8164 12.0744 92.8827 12.0744C93.9542 12.0233 94.9235 12.6366 95.3572 13.6077H95.3827V7.83215H97.7042ZM93.546 20.2522C94.898 20.2522 95.3572 18.7699 95.3572 16.981C95.3572 15.1155 94.847 13.761 93.5715 13.761C92.296 13.761 91.8368 15.0133 91.8368 16.9299C91.8623 19.1533 92.2195 20.2522 93.546 20.2522Z" fill="#009EDB"/>
<path d="M104.592 8.80322H106.99V14.0932H110.842V8.80322H113.214V21.8366H110.842V16.061H106.99V21.811H104.592V8.80322Z" fill="#009EDB"/>
<path d="M121.684 21.351C120.791 21.7599 119.796 21.9643 118.826 21.9643C115.74 21.9643 114.388 19.741 114.388 17.1599C114.388 14.2977 115.893 12.0743 118.342 12.0743C120.408 12.0743 122.168 13.2755 122.168 17.211V17.671H116.633C116.633 19.3066 117.296 20.3032 119.082 20.3032C120.485 20.3032 121.173 19.8688 121.607 19.5621L121.684 21.351ZM119.923 16.1888C119.923 14.5021 119.362 13.6332 118.316 13.6332C117.092 13.6332 116.607 14.911 116.607 16.1888H119.923Z" fill="#009EDB"/>
<path d="M123.469 12.7644C124.413 12.3044 125.459 12.0488 126.505 12.0488C129.49 12.0488 130.178 13.5055 130.178 15.9077V20.0988C130.178 20.661 130.229 21.2233 130.306 21.7855H128.214C128.112 21.3511 128.061 20.9166 128.087 20.4822H128.061C127.474 21.2744 126.76 21.9388 125.383 21.9388C123.903 21.9388 122.525 20.9166 122.525 19.1277C122.525 16.5211 124.643 15.8566 127.576 15.8566H128.036V15.4988C128.036 14.5533 127.576 13.6588 126.25 13.6588C125.306 13.6844 124.388 14.0166 123.622 14.6044L123.469 12.7644ZM128.01 17.1088H127.806C125.842 17.1088 124.668 17.5177 124.668 18.9233C124.617 19.6899 125.204 20.3544 125.969 20.4055H126.148C127.525 20.4055 128.036 19.3833 128.036 17.671V17.1088H128.01Z" fill="#009EDB"/>
<path d="M132.398 7.83215H134.694V21.811H132.398V7.83215Z" fill="#009EDB"/>
<path d="M137.245 10.2344L139.541 9.5188V12.2021H141.454V13.8888H139.541V18.8977C139.541 19.9199 139.924 20.2266 140.587 20.2266C140.893 20.2266 141.199 20.1499 141.454 20.0221V21.6577C140.97 21.8621 140.434 21.9644 139.898 21.9644C138.189 21.9644 137.22 21.1721 137.22 19.1532V13.9144H135.689V12.2277H137.22V10.2344H137.245Z" fill="#009EDB"/>
<path d="M142.347 7.83215H144.643V13.4544H144.694C145.102 12.8666 145.637 12.0744 147.066 12.0744C149.234 12.0744 149.898 13.6844 149.898 15.6266V21.811H147.602V16.061C147.602 14.5788 147.219 13.9655 146.275 13.9655C145.076 13.9655 144.643 14.9877 144.643 16.2144V21.811H142.347V7.83215Z" fill="#009EDB"/>
<path d="M61.4798 25.2866C64.1839 25.2866 66.6584 27.3055 66.6584 31.9822C66.6584 36.6588 64.1839 38.6777 61.4798 38.6777C58.7758 38.6777 56.3013 36.6588 56.3013 31.9822C56.3013 27.3055 58.7758 25.2866 61.4798 25.2866ZM61.4798 36.8633C62.9849 36.8633 64.2094 35.5855 64.2094 31.9822C64.2094 28.3788 62.9849 27.1266 61.4798 27.1266C59.9747 27.1266 58.7503 28.4044 58.7503 31.9822C58.7503 35.56 59.9747 36.8633 61.4798 36.8633Z" fill="#009EDB"/>
<path d="M67.6024 30.3976C67.6024 29.861 67.5769 29.3499 67.5259 28.8132H69.6177C69.6432 29.401 69.6942 29.9888 69.6942 30.5765H69.7198C70.0004 29.8354 70.7402 28.6854 72.1687 28.6854C72.2963 28.6854 72.4238 28.711 72.5514 28.7365V30.9088C72.3473 30.8576 72.1177 30.8065 71.8881 30.8065C70.9442 30.8065 69.8983 31.3943 69.8983 33.1832V38.4476H67.6024V30.3976Z" fill="#009EDB"/>
<path d="M73.7247 40.1088C74.592 40.6199 75.5614 40.901 76.5563 40.9266C78.7247 40.9266 79.0818 39.4188 79.0818 37.911V36.991H79.0563C78.6737 37.7322 78.0359 38.6266 76.5308 38.6266C75.2043 38.6266 73.189 37.7322 73.189 33.8477C73.189 31.1899 74.1328 28.8644 76.6584 28.8644C78.0614 28.8644 78.6992 29.6566 79.1839 30.4999H79.2604C79.2604 29.9888 79.3114 29.5033 79.3369 29.0177H81.4288C81.4033 29.5288 81.3522 30.0144 81.3522 30.5255V37.6044C81.3522 40.6199 80.4339 42.741 76.9135 42.741C75.791 42.741 74.6686 42.5366 73.6226 42.1533L73.7247 40.1088ZM77.0665 36.9144C78.5206 36.9144 79.1073 35.8666 79.1073 33.6944C79.1073 31.6755 78.342 30.6022 77.2451 30.6277C76.0206 30.6533 75.5614 31.7777 75.5614 33.7199C75.5614 35.9688 76.2757 36.9144 77.0665 36.9144Z" fill="#009EDB"/>
<path d="M83.4185 29.3755C84.3624 28.8899 85.4083 28.6599 86.4542 28.6599C89.4389 28.6599 90.1277 30.1166 90.1277 32.5188V36.7099C90.1277 37.2721 90.1787 37.8344 90.2552 38.3966H88.1634C88.0613 37.9621 88.0103 37.5277 88.0358 37.0932H88.0103C87.4236 37.8855 86.7093 38.5499 85.3318 38.5499C83.8522 38.5499 82.4746 37.5277 82.4746 35.7388C82.4746 33.1321 84.592 32.4677 87.5256 32.4677H87.9848V32.1099C87.9848 31.1644 87.5256 30.2699 86.1991 30.2699C85.2552 30.2955 84.3369 30.6277 83.5716 31.2155L83.4185 29.3755ZM87.9593 33.7199H87.7552C85.7909 33.7199 84.6175 34.1288 84.6175 35.5344C84.5665 36.301 85.1532 36.9655 85.9185 37.0166H86.0971C87.4746 37.0166 87.9848 35.9944 87.9848 34.2821L87.9593 33.7199Z" fill="#009EDB"/>
<path d="M92.0922 30.3976C92.0922 29.861 92.0666 29.3499 92.0156 28.8132H94.184C94.2095 29.2988 94.2605 29.8099 94.2605 30.2954H94.286C94.6177 29.7076 95.2809 28.6854 96.8371 28.6854C99.0054 28.6854 99.6687 30.2954 99.6687 32.2376V38.4221H97.3473V32.6465C97.3473 31.1643 96.9646 30.551 96.0207 30.551C94.8217 30.551 94.3881 31.5732 94.3881 32.7999V38.3965H92.0922V30.3976Z" fill="#009EDB"/>
<path d="M101.276 24.801H103.674V27.0755H101.276V24.801ZM101.327 28.8899H103.623V38.4988H101.327V28.8899Z" fill="#009EDB"/>
<path d="M105.612 36.5311L109.72 30.6789H105.74V28.9155H112.015V30.8833L107.985 36.7611H112.143V38.5244H105.587V36.5311H105.612Z" fill="#009EDB"/>
<path d="M113.776 29.3755C114.72 28.8899 115.766 28.6599 116.812 28.6599C119.796 28.6599 120.485 30.1166 120.485 32.5188V36.7099C120.485 37.2721 120.536 37.8344 120.613 38.3966H118.521C118.419 37.9621 118.368 37.5277 118.393 37.0932H118.368C117.781 37.8855 117.067 38.5499 115.689 38.5499C114.21 38.5499 112.832 37.5277 112.832 35.7388C112.832 33.1321 114.949 32.4677 117.883 32.4677H118.342V32.1099C118.342 31.1644 117.883 30.2699 116.557 30.2699C115.613 30.2955 114.694 30.6277 113.929 31.2155L113.776 29.3755ZM118.317 33.7199H118.113C116.148 33.7199 114.975 34.1288 114.975 35.5344C114.924 36.301 115.511 36.9655 116.276 37.0166H116.454C117.832 37.0166 118.342 35.9944 118.342 34.2821V33.7199H118.317Z" fill="#009EDB"/>
<path d="M122.959 26.8199L125.255 26.1044V28.7877H127.169V30.4744H125.255V35.4577C125.255 36.4799 125.638 36.7866 126.301 36.7866C126.607 36.7866 126.914 36.7355 127.169 36.5821V38.2177C126.684 38.4477 126.148 38.5499 125.613 38.5244C123.903 38.5244 122.934 37.7321 122.934 35.7388V30.4744H121.403V28.7877H122.934L122.959 26.8199Z" fill="#009EDB"/>
<path d="M128.572 24.801H130.944V27.0755H128.572V24.801ZM128.623 28.8899H130.944V38.4988H128.648L128.623 28.8899Z" fill="#009EDB"/>
<path d="M136.48 28.8644C138.444 28.8644 140.689 29.8866 140.689 33.7966C140.689 37.8344 138.444 38.7544 136.48 38.7544C134.516 38.7544 132.245 37.8344 132.245 33.7966C132.271 29.9122 134.541 28.8644 136.48 28.8644ZM136.48 37.1444C137.959 37.1444 138.317 35.4322 138.317 33.8222C138.317 32.2122 137.985 30.5255 136.48 30.5255C134.975 30.5255 134.643 32.2122 134.643 33.8222C134.643 35.4322 135 37.1444 136.48 37.1444Z" fill="#009EDB"/>
<path d="M142.602 30.3976C142.602 29.861 142.577 29.3499 142.526 28.8132H144.694C144.72 29.2988 144.771 29.8099 144.771 30.2954H144.796C145.128 29.7076 145.791 28.6854 147.347 28.6854C149.516 28.6854 150.179 30.2954 150.179 32.2376V38.4221H147.883V32.6465C147.883 31.1643 147.5 30.551 146.556 30.551C145.358 30.551 144.924 31.5732 144.924 32.7999V38.3965H142.628L142.602 30.3976Z" fill="#009EDB"/>
</svg>
