<svg width="32" height="32" viewBox="0 0 32 32" fill="none" xmlns="http://www.w3.org/2000/svg">
<rect x="0.5" y="0.5" width="31" height="31" rx="15.5" stroke="#F3F3F3"/>
<path d="M15.1298 17.5536L11.9239 21.5898H10.7532L14.666 16.6272L14.7803 16.4823L14.6754 16.3304L10.4765 10.25H13.6245L16.1415 13.9299L16.3341 14.2114L16.5446 13.943L19.4414 10.25H20.6124L16.9834 14.8709L16.8701 15.0151L16.9736 15.1665L21.366 21.5898H18.3097L15.5313 17.567L15.3396 17.2894L15.1298 17.5536ZM18.4721 20.7716L18.5467 20.8795H18.6778H19.6763H20.149L19.883 20.4889L13.4162 10.9907L13.3418 10.8814H13.2096H12.116H11.6394L11.9103 11.2735L18.4721 20.7716Z" fill="white" stroke="#F3F3F3" stroke-width="0.5"/>
</svg>
